<svg width="24" height="24" viewBox="0 0 24 24" fill="none" xmlns="http://www.w3.org/2000/svg">
<path fill-rule="evenodd" clip-rule="evenodd" d="M10.238 3.538C11.2224 2.5534 12.5577 2.00016 13.95 2H16.65C16.8489 2 17.0397 2.07902 17.1803 2.21967C17.321 2.36032 17.4 2.55109 17.4 2.75V6.35C17.4 6.54891 17.321 6.73968 17.1803 6.88033C17.0397 7.02098 16.8489 7.1 16.65 7.1H13.95C13.9303 7.1 13.9108 7.10388 13.8926 7.11142C13.8744 7.11896 13.8579 7.13 13.8439 7.14393C13.83 7.15786 13.819 7.1744 13.8114 7.1926C13.8039 7.2108 13.8 7.2303 13.8 7.25V9.2H16.65C16.764 9.19994 16.8766 9.22587 16.979 9.27583C17.0815 9.32579 17.1713 9.39846 17.2415 9.48832C17.3117 9.57817 17.3604 9.68285 17.3841 9.79439C17.4078 9.90593 17.4057 10.0214 17.378 10.132L16.478 13.732C16.4374 13.8943 16.3437 14.0384 16.2118 14.1413C16.0799 14.2442 15.9173 14.3001 15.75 14.3H13.8V20.75C13.8 20.9489 13.721 21.1397 13.5803 21.2803C13.4397 21.421 13.2489 21.5 13.05 21.5H9.45C9.25109 21.5 9.06032 21.421 8.91967 21.2803C8.77902 21.1397 8.7 20.9489 8.7 20.75V14.3H6.75C6.55109 14.3 6.36032 14.221 6.21967 14.0803C6.07902 13.9397 6 13.7489 6 13.55V9.95C6 9.85151 6.0194 9.75398 6.05709 9.66299C6.09478 9.57199 6.15003 9.48931 6.21967 9.41967C6.28931 9.35003 6.37199 9.29478 6.46299 9.25709C6.55398 9.2194 6.65151 9.2 6.75 9.2H8.7V7.25C8.70016 5.85768 9.2534 4.52244 10.238 3.538ZM13.95 3.5C12.9554 3.5 12.0016 3.89509 11.2983 4.59835C10.5951 5.30161 10.2 6.25544 10.2 7.25V9.95C10.2 10.1489 10.121 10.3397 9.98033 10.4803C9.83968 10.621 9.64891 10.7 9.45 10.7H7.5V12.8H9.45C9.64891 12.8 9.83968 12.879 9.98033 13.0197C10.121 13.1603 10.2 13.3511 10.2 13.55V20H12.3V13.55C12.3 13.3511 12.379 13.1603 12.5197 13.0197C12.6603 12.879 12.8511 12.8 13.05 12.8H15.164L15.689 10.7H13.05C12.8511 10.7 12.6603 10.621 12.5197 10.4803C12.379 10.3397 12.3 10.1489 12.3 9.95V7.25C12.3 6.81239 12.4738 6.39271 12.7833 6.08327C13.0927 5.77384 13.5124 5.6 13.95 5.6H15.9V3.5H13.95Z" fill="black"/>
</svg>
