<svg width="12" height="18" viewBox="0 0 12 18" fill="none" xmlns="http://www.w3.org/2000/svg">
<path d="M0.049968 8.95927L6.02104 14.6486C6.12067 14.7435 6.25303 14.7965 6.39068 14.7965C6.52833 14.7965 6.66069 14.7435 6.76032 14.6486L6.76675 14.6421C6.81522 14.5961 6.85381 14.5407 6.88018 14.4792C6.90656 14.4178 6.92015 14.3517 6.92015 14.2848C6.92015 14.218 6.90656 14.1518 6.88018 14.0904C6.85381 14.0289 6.81522 13.9735 6.76675 13.9275L1.1439 8.57034L6.76675 3.21534C6.81522 3.1693 6.85381 3.11388 6.88018 3.05245C6.90656 2.99102 6.92015 2.92487 6.92015 2.85802C6.92015 2.79117 6.90656 2.72502 6.88018 2.66359C6.85381 2.60216 6.81522 2.54674 6.76675 2.5007L6.76032 2.49427C6.66069 2.39929 6.52833 2.34631 6.39068 2.34631C6.25303 2.34631 6.12067 2.39929 6.02104 2.49427L0.049968 8.18355C-0.00254519 8.23359 -0.0443514 8.29376 -0.0729165 8.36043C-0.101482 8.4271 -0.116211 8.49888 -0.116211 8.57141C-0.116211 8.64394 -0.101482 8.71572 -0.0729165 8.78239C-0.0443514 8.84906 -0.00254519 8.90924 0.049968 8.95927Z" fill="#D2F24F"/>
</svg>
